<svg width="21" height="22" viewBox="0 0 21 22" fill="none" xmlns="http://www.w3.org/2000/svg">
<path d="M19.6667 19.432V8.81019C19.6667 8.61619 19.6245 8.42485 19.5435 8.25133C19.4625 8.07782 19.3449 7.92688 19.2 7.81048L11.0333 1.24993C10.8314 1.0877 10.5858 1 10.3333 1C10.0809 1 9.83528 1.0877 9.63333 1.24993L1.46667 7.81048C1.32177 7.92688 1.20417 8.07782 1.12317 8.25133C1.04217 8.42485 1 8.61619 1 8.81019V19.432C1 19.7635 1.12292 20.0813 1.34171 20.3157C1.5605 20.55 1.85725 20.6817 2.16667 20.6817H6.83333C7.14275 20.6817 7.4395 20.55 7.65829 20.3157C7.87708 20.0813 8 19.7635 8 19.432V15.6831C8 15.3517 8.12292 15.0339 8.34171 14.7995C8.5605 14.5652 8.85725 14.4335 9.16667 14.4335H11.5C11.8094 14.4335 12.1062 14.5652 12.325 14.7995C12.5437 15.0339 12.6667 15.3517 12.6667 15.6831V19.432C12.6667 19.7635 12.7896 20.0813 13.0084 20.3157C13.2272 20.55 13.5239 20.6817 13.8333 20.6817H18.5C18.8094 20.6817 19.1062 20.55 19.325 20.3157C19.5438 20.0813 19.6667 19.7635 19.6667 19.432Z" stroke="#212121" stroke-width="1.5" stroke-linecap="round" stroke-linejoin="round"/>
</svg>
